<svg width="45" height="46" viewBox="0 0 45 46" fill="none" xmlns="http://www.w3.org/2000/svg">
<ellipse cx="22.5" cy="23" rx="22.5" ry="23" fill="#0D0D0D"/>
<path d="M22.8 32V26.816H21.84V21.28C21.84 20.4693 21.648 19.872 21.264 19.488C20.9013 19.0827 20.2933 18.88 19.44 18.88C19.0347 18.88 18.4373 18.8907 17.648 18.912C16.8587 18.9333 16.0267 18.9653 15.152 19.008C14.2773 19.0507 13.4773 19.0933 12.752 19.136V14.272C13.264 14.2293 13.872 14.1867 14.576 14.144C15.28 14.1013 16.0053 14.0693 16.752 14.048C17.52 14.0267 18.224 14.016 18.864 14.016C20.6773 14.016 22.2133 14.2827 23.472 14.816C24.752 15.3493 25.7227 16.1493 26.384 17.216C27.0667 18.2827 27.408 19.6373 27.408 21.28V32H22.8ZM17.2 32.448C15.9627 32.448 14.864 32.224 13.904 31.776C12.944 31.328 12.1867 30.688 11.632 29.856C11.0987 29.0027 10.832 27.9893 10.832 26.816C10.832 25.4933 11.184 24.4267 11.888 23.616C12.592 22.784 13.5627 22.176 14.8 21.792C16.0373 21.408 17.456 21.216 19.056 21.216H22.48V24.224H19.056C18.2667 24.224 17.6587 24.4267 17.232 24.832C16.8053 25.216 16.592 25.7387 16.592 26.4C16.592 27.04 16.8053 27.5627 17.232 27.968C17.6587 28.352 18.2667 28.544 19.056 28.544C19.568 28.544 20.016 28.4587 20.4 28.288C20.8053 28.096 21.136 27.776 21.392 27.328C21.648 26.88 21.7973 26.2613 21.84 25.472L23.184 26.752C23.0773 27.968 22.7787 29.0027 22.288 29.856C21.8187 30.688 21.1573 31.328 20.304 31.776C19.472 32.224 18.4373 32.448 17.2 32.448ZM28.5155 23.808V8.64H34.4675V23.808H28.5155ZM28.0995 32V26.432H34.8835V32H28.0995Z" fill="#323232"/>
<path d="M20.8 34V28.816H19.84V23.28C19.84 22.4693 19.648 21.872 19.264 21.488C18.9013 21.0827 18.2933 20.88 17.44 20.88C17.0347 20.88 16.4373 20.8907 15.648 20.912C14.8587 20.9333 14.0267 20.9653 13.152 21.008C12.2773 21.0507 11.4773 21.0933 10.752 21.136V16.272C11.264 16.2293 11.872 16.1867 12.576 16.144C13.28 16.1013 14.0053 16.0693 14.752 16.048C15.52 16.0267 16.224 16.016 16.864 16.016C18.6773 16.016 20.2133 16.2827 21.472 16.816C22.752 17.3493 23.7227 18.1493 24.384 19.216C25.0667 20.2827 25.408 21.6373 25.408 23.28V34H20.8ZM15.2 34.448C13.9627 34.448 12.864 34.224 11.904 33.776C10.944 33.328 10.1867 32.688 9.632 31.856C9.09867 31.0027 8.832 29.9893 8.832 28.816C8.832 27.4933 9.184 26.4267 9.888 25.616C10.592 24.784 11.5627 24.176 12.8 23.792C14.0373 23.408 15.456 23.216 17.056 23.216H20.48V26.224H17.056C16.2667 26.224 15.6587 26.4267 15.232 26.832C14.8053 27.216 14.592 27.7387 14.592 28.4C14.592 29.04 14.8053 29.5627 15.232 29.968C15.6587 30.352 16.2667 30.544 17.056 30.544C17.568 30.544 18.016 30.4587 18.4 30.288C18.8053 30.096 19.136 29.776 19.392 29.328C19.648 28.88 19.7973 28.2613 19.84 27.472L21.184 28.752C21.0773 29.968 20.7787 31.0027 20.288 31.856C19.8187 32.688 19.1573 33.328 18.304 33.776C17.472 34.224 16.4373 34.448 15.2 34.448ZM26.5155 25.808V10.64H32.4675V25.808H26.5155ZM26.0995 34V28.432H32.8835V34H26.0995Z" fill="#F5F5F5"/>
</svg>
